<svg width="45" height="35" viewBox="0 0 45 35" fill="none" xmlns="http://www.w3.org/2000/svg">
<g clip-path="url(#clip0_408_284)">
<path d="M12.3534 9.88245H7.68963C5.62884 9.95823 3.94437 10.6038 3.45799 11.935C3.20438 12.6293 3.06481 13.3918 2.8665 14.1115C1.85832 17.7709 0.964361 21.5311 0 25.1175H36.3094C39.1164 25.1175 41.0439 24.6561 41.5646 22.9232C41.8066 22.1183 42.0384 21.2066 42.2699 20.3223C43.1723 16.8741 44.0756 13.4261 45 9.88245H12.3534Z" fill="#822124"/>
<path d="M11.9893 15.297C12.1843 15.1925 12.4355 14.7166 12.1485 14.5185C12.0576 14.4557 11.9056 14.4375 11.6935 14.4654C11.4968 14.4912 11.3836 14.5433 11.3068 14.6247C11.1833 14.7556 11.07 15.1504 11.2613 15.2971C11.4477 15.4399 11.8652 15.3635 11.9893 15.297V15.297ZM9.21377 14.5185C9.07402 15.2237 8.91661 15.9152 8.75875 16.6064C7.74527 16.6147 6.71051 16.6453 5.73298 16.5887C5.91761 15.9125 6.05002 15.1956 6.2335 14.5185H5.14149C4.7506 16.2434 4.39496 17.9958 3.9585 19.6853H5.07329C5.24811 18.8187 5.41171 17.9432 5.642 17.1196C6.59249 17.1014 7.73167 17.0696 8.64506 17.1373C8.45673 17.9936 8.22918 18.8191 8.05356 19.6853H9.16836C9.52665 17.9349 9.90393 16.1995 10.3514 14.5185H9.21377V14.5185ZM24.9797 16.0048C24.1123 15.7323 23.4303 16.1928 23.1142 16.6241C23.1859 16.4322 23.2154 16.2075 23.2735 16.0048H22.409C22.1976 17.2797 21.8861 18.4765 21.59 19.6853H22.5684C22.7055 18.9678 22.7646 18.0006 23.0688 17.3142C23.3119 16.7657 23.9481 16.2985 24.8661 16.5534C24.8788 16.351 24.9533 16.1966 24.9797 16.0048V16.0048ZM25.5256 18.8183C25.4354 18.6371 25.4122 18.3379 25.4347 18.1104C25.4852 17.5992 25.7248 16.9767 26.0945 16.6949C26.6046 16.306 27.6117 16.3703 28.415 16.5888C28.4399 16.3782 28.4943 16.1903 28.5288 15.9872C27.2114 15.8198 25.9613 15.924 25.2984 16.4649C24.6494 16.9945 24.2241 18.2117 24.5247 18.9776C24.8767 19.8738 26.4549 19.9225 27.7326 19.5792C27.7891 19.3991 27.819 19.1983 27.869 19.013C27.1707 19.2951 25.8359 19.4417 25.5256 18.8183V18.8183ZM36.514 16.0225C35.6494 15.6862 34.9295 16.2504 34.6485 16.5887C34.7286 16.4151 34.7332 16.1827 34.8077 16.0048H33.9433C33.7102 17.2685 33.4292 18.4951 33.1016 19.6852H34.1026C34.1089 19.1974 34.2321 18.8366 34.33 18.3583C34.5392 17.3368 34.8464 16.2166 36.3777 16.5533C36.4283 16.3806 36.4494 16.1846 36.514 16.0225ZM10.9883 16.0048C10.9618 16.0078 10.9635 16.0328 10.9655 16.0579C10.7499 17.3117 10.4582 18.5063 10.1465 19.6852H11.1247C11.3598 18.423 11.629 17.1875 11.9665 16.0048L10.9883 16.0048V16.0048ZM19.5878 15.9341C18.881 15.9765 18.2835 16.1346 17.8588 16.4826C17.338 16.9093 16.9163 17.8529 17.0399 18.7122C17.2162 19.938 19.1786 19.894 20.7481 19.5969C20.7749 19.3817 20.8418 19.1978 20.8846 18.9952C20.2381 19.1834 19.1154 19.4461 18.4502 19.1192C17.9481 18.8722 17.9452 18.247 18.109 17.7036C19.1639 17.6775 20.2603 17.6824 21.3167 17.7036C21.3837 17.3184 21.5755 16.8985 21.4077 16.5181C21.1865 16.0158 20.3942 15.8857 19.5878 15.9341ZM20.5206 17.2788H18.2227C18.2955 16.868 18.7707 16.4164 19.5195 16.3941C20.2243 16.3732 20.7289 16.5954 20.5206 17.2788V17.2788ZM15.8796 16.0048C15.0516 15.7629 14.0426 16.0517 13.605 16.3264C13.6066 16.3385 13.5946 16.3401 13.5817 16.341C13.5891 16.3361 13.5973 16.3312 13.605 16.3264C13.605 16.3254 13.6048 16.3243 13.6046 16.3233C13.6119 16.2052 13.6654 16.1229 13.6728 16.0048H12.831C12.4802 17.82 12.0643 19.5843 11.6253 21.3309H12.6036C12.7452 20.6507 12.8386 19.9331 13.0359 19.296C13.2593 19.966 14.7181 19.838 15.3337 19.5792C16.6037 19.0449 17.5833 16.5025 15.8796 16.0048V16.0048ZM15.1061 18.9952C14.5827 19.4264 13.296 19.4199 13.1951 18.6944C13.1512 18.3787 13.3023 18.0478 13.3772 17.7212C13.4527 17.3907 13.5072 17.0735 13.5818 16.7834C14.0973 16.2938 15.6122 16.2346 15.7659 17.0488C15.8992 17.7557 15.5395 18.6382 15.1061 18.9952V18.9952ZM40.154 14.4123C40.0702 14.9841 39.9581 15.5339 39.8128 16.0579C37.4132 15.4671 35.9416 16.8403 35.9681 18.5352C35.9733 18.863 36.0458 19.188 36.3093 19.4199C36.7637 19.8194 38.0641 19.9151 38.7209 19.5791C38.8479 19.5141 38.9779 19.3958 39.0621 19.3138C39.1254 19.252 39.2258 19.0902 39.2441 19.1368C39.2095 19.3163 39.1579 19.4827 39.1532 19.6852H40.0405C40.2116 17.7774 40.7402 16.1479 41.1325 14.4122H40.1541V14.4123H40.154ZM37.9701 19.2783C37.3115 19.2893 36.9841 18.9723 36.969 18.4467C36.9427 17.5262 37.4619 16.5035 38.5161 16.4118C39.0069 16.3691 39.3622 16.4579 39.7218 16.5534C39.3916 17.5874 39.5108 19.2526 37.9701 19.2783V19.2783ZM29.5297 16.0048C29.4815 16.2151 29.4076 16.4053 29.3477 16.6064C29.925 16.4938 31.7225 16.1486 31.8957 16.7479C31.9532 16.9471 31.854 17.1586 31.782 17.3142C30.1566 17.1945 28.8317 17.4045 28.4832 18.3051C28.2498 18.9083 28.5093 19.5019 29.0065 19.6677C29.9639 19.9867 31.1285 19.6212 31.5317 19.1192C31.4898 19.2929 31.4502 19.4686 31.4636 19.6853H32.3053C32.3143 19.0583 32.4316 18.5508 32.5555 17.9866C32.6612 17.5061 32.86 17.0305 32.8286 16.6064C32.7561 15.6353 30.6876 15.9788 29.5297 16.0048V16.0048ZM31.1222 18.9775C30.618 19.3614 29.2029 19.4704 29.3477 18.5528C29.4678 17.7908 30.5348 17.6288 31.6908 17.7388C31.6049 18.1557 31.5064 18.685 31.1222 18.9775V18.9775Z" fill="white"/>
</g>
<defs>
<clipPath id="clip0_408_284">
<rect width="45" height="35" fill="white"/>
</clipPath>
</defs>
</svg>
